<?xml version="1.0" encoding="UTF-8"?>
<svg id="Layer_2" data-name="Layer 2" xmlns="http://www.w3.org/2000/svg" viewBox="0 0 364.68 59.76">
  <defs>
    <style>
      .cls-1 {
        fill: #2d2d2d;
      }
    </style>
  </defs>
  <g id="Layer_1-2" data-name="Layer 1">
    <g>
      <path class="cls-1" d="M.9,59.76V14.04l-.9-7.2h13.68l20.34,36L55.08,6.84h12.15v52.92h-11.88V26.19h-.99l-3.51,7.83-11.34,20.34h-10.89l-11.34-20.34-3.6-7.83h-.9v33.57H.9Z"/>
      <path class="cls-1" d="M91.71,59.76c-2.94,0-5.24-.39-6.88-1.17-1.65-.78-2.82-1.77-3.51-2.97-.69-1.2-1.11-2.46-1.26-3.78-.15-1.32-.23-2.52-.23-3.6v-28.8h10.98v28.98c-.06,1.32.37,2.25,1.31,2.79.93.54,1.94.81,3.02.81h17.82c1.32,0,2.1-.12,2.34-.36.24-.24.36-1.02.36-2.34v-29.88h10.98v40.32h-7.38l-3.42-1.8c-2.4.48-5.24.9-8.5,1.26-3.27.36-6.95.54-11.02.54h-4.59Z"/>
      <path class="cls-1" d="M147.6,59.76c-4.02,0-6.87-.21-8.55-.63-1.68-.42-2.52-.84-2.52-1.26l2.7-6.75c1.74.18,4.93.38,9.58.58,4.65.21,10.4.31,17.23.31h4.5c1.5,0,2.44-.4,2.83-1.21.39-.81.58-1.9.58-3.29s-.23-2.49-.67-3.33c-.45-.84-1.37-1.26-2.75-1.26h-22.14c-4.2,0-7.23-.79-9.09-2.38-1.86-1.59-2.79-3.97-2.79-7.16v-3.6c0-.84.09-1.83.27-2.97.18-1.14.63-2.28,1.35-3.42.72-1.14,1.89-2.08,3.51-2.83,1.62-.75,3.87-1.12,6.75-1.12h24.84c3.6,0,6.15.21,7.65.63,1.5.42,2.25.84,2.25,1.26l-.9,6.75c-1.74-.18-4.95-.37-9.63-.58-4.68-.21-10.41-.31-17.19-.31h-4.5c-1.5,0-2.45.41-2.83,1.21-.39.81-.58,1.76-.58,2.84,0,1.14.19,2.09.58,2.83.39.75,1.33,1.12,2.83,1.12h22.14c4.08,0,7.08.84,9,2.52,1.92,1.68,2.88,3.81,2.88,6.39v5.31c0,1.08-.08,2.22-.23,3.42-.15,1.2-.58,2.33-1.3,3.38-.72,1.05-1.89,1.91-3.51,2.56-1.62.66-3.9.99-6.84.99h-25.47Z"/>
      <path class="cls-1" d="M201.24,13.77c-2.22,0-3.84-.45-4.86-1.35-1.02-.9-1.53-2.4-1.53-4.5s.49-3.67,1.48-4.54c.99-.87,2.62-1.31,4.91-1.31s3.93.44,4.95,1.31c1.02.87,1.53,2.38,1.53,4.54,0,2.04-.51,3.53-1.53,4.46-1.02.93-2.67,1.39-4.95,1.39ZM195.75,59.76V19.44h10.98v40.32h-10.98Z"/>
      <path class="cls-1" d="M218.52,59.76V19.44h7.38l3.6,1.8c2.52-.48,5.55-.9,9.09-1.26,3.54-.36,7.59-.54,12.15-.54h4.5c3,0,5.31.42,6.93,1.26,1.62.84,2.77,1.89,3.46,3.15.69,1.26,1.11,2.54,1.26,3.83.15,1.29.22,2.38.22,3.29v28.8h-10.98v-28.98c0-2.4-1.44-3.6-4.32-3.6h-19.62c-1.14,0-1.88.11-2.21.31-.33.21-.5.77-.5,1.67v30.6h-10.98Z"/>
      <path class="cls-1" d="M279.45,59.76V27.18h-5.58v-7.65h5.58v-8.01c0-2.04.41-3.93,1.21-5.67.81-1.74,2.16-3.15,4.05-4.23,1.89-1.08,4.39-1.62,7.52-1.62h4.5c7.2,0,12.38.33,15.52.99,3.15.66,4.73,1.23,4.73,1.71l-2.7,6.84c-1.02-.42-2.85-.82-5.49-1.21-2.64-.39-5.82-.58-9.54-.58h-4.5c-1.5,0-2.6.27-3.29.81-.69.54-1.03,1.47-1.03,2.79v8.19h18.72v7.65h-18.72v32.58h-10.98Z"/>
      <path class="cls-1" d="M327.96,59.76c-4.02,0-7.01-.81-8.96-2.43-1.95-1.62-2.92-4.26-2.92-7.92v-18.45c0-.9.07-1.99.22-3.29.15-1.29.57-2.56,1.26-3.83.69-1.26,1.86-2.31,3.51-3.15,1.65-.84,3.94-1.26,6.88-1.26h24.84c3,0,5.31.42,6.93,1.26,1.62.84,2.77,1.89,3.46,3.15.69,1.26,1.11,2.54,1.26,3.83.15,1.29.22,2.38.22,3.29v17.28c0,1.08-.08,2.28-.22,3.6-.15,1.32-.58,2.58-1.3,3.78-.72,1.2-1.89,2.19-3.51,2.97-1.62.78-3.9,1.17-6.84,1.17h-24.84ZM331.38,52.02h18c2.94,0,4.41-1.2,4.41-3.6v-17.64c0-2.4-1.47-3.6-4.41-3.6h-18c-2.88,0-4.32,1.2-4.32,3.6v17.64c0,2.4,1.44,3.6,4.32,3.6Z"/>
    </g>
  </g>
</svg>